<svg id="Слой_1" data-name="Слой 1" xmlns="http://www.w3.org/2000/svg" viewBox="0 0 1500 1500"><defs><style>.cls-1{fill:none;}.cls-2{fill:#00c8c2;}</style></defs><title>Big Data Analytics</title><rect class="cls-1" width="1500" height="1500"/><path class="cls-2" d="M1172.9,290.32V694.84H1320V290.32Zm110.32,367.74h-73.55v-331h73.55Z"/><path class="cls-2" d="M989,476.33a440,440,0,0,0-36.77-29.51v-9.4H938.41a442,442,0,0,0-243.57-73.55H676.45V823.55h459.68V805.16a441.32,441.32,0,0,0-14.23-110.32h14.23v-331H989ZM713.23,786.77V401a404.66,404.66,0,0,1,149.47,36.37H805.16V694.84h147.1v-201A402.67,402.67,0,0,1,989,528V694.84h94.8A404.56,404.56,0,0,1,1099,786.77ZM915.48,474.19V658.06H841.94V474.19Zm110.32-73.55h73.55V658.06h-73.55Z"/><rect class="cls-2" x="303.92" y="809.75" width="221.01" height="36.77" transform="translate(-464.2 535.6) rotate(-45)"/><path class="cls-2" d="M400.65,750a55.16,55.16,0,1,0-55.16,55.16A55.23,55.23,0,0,0,400.65,750Zm-73.55,0a18.39,18.39,0,1,1,18.39,18.39A18.39,18.39,0,0,1,327.1,750Z"/><path class="cls-2" d="M492.58,841.94a55.16,55.16,0,1,0,55.16,55.16A55.23,55.23,0,0,0,492.58,841.94Zm0,73.55A18.39,18.39,0,1,1,511,897.1,18.39,18.39,0,0,1,492.58,915.48Z"/><path class="cls-2" d="M986.4,1125.89a437.59,437.59,0,0,0,76.18-247.18V860.32H639.68V437.42H621.29a442.79,442.79,0,0,0-55.16,3.93V180H180V437.42H411.42l35.91,35.91C286.37,542.45,180,701.79,180,878.71,180,1122,378,1320,621.29,1320c106.7,0,208.34-38.58,288.66-108.24l56.89,56.89a57.39,57.39,0,0,0,81.16-81.16ZM426.64,400.65H216.77V216.77H529.35V503.36Zm194.65,882.58c-223.05,0-404.52-181.46-404.52-404.52,0-167.16,103.63-317.12,258.84-377.1l90.52,90.52V478.24c12.3-1.69,24.6-3.05,36.77-3.62V897.1h422.5A400.32,400.32,0,0,1,960,1099.47l-29.33-29.33a110.91,110.91,0,1,0-81.16,81.16l34.38,34.38C810.59,1248.49,718.23,1283.23,621.29,1283.23Zm275.81-239a73.55,73.55,0,1,1-73.55-73.55A73.62,73.62,0,0,1,897.1,1044.19ZM1022,1242.65a20.62,20.62,0,0,1-29.16,0L885.57,1135.38a111.08,111.08,0,0,0,29.16-29.16L1022,1213.48A20.65,20.65,0,0,1,1022,1242.65Z"/><rect class="cls-2" x="253.55" y="253.55" width="239.03" height="36.77"/><rect class="cls-2" x="253.55" y="327.1" width="239.03" height="36.77"/><rect class="cls-2" x="805.16" y="1025.81" width="36.77" height="36.77"/><rect class="cls-2" x="639.68" y="1025.81" width="36.77" height="36.77"/><rect class="cls-2" x="566.13" y="1025.81" width="36.77" height="36.77"/><rect class="cls-2" x="492.58" y="1025.81" width="36.77" height="36.77"/></svg>