<svg id="Слой_1" data-name="Слой 1" xmlns="http://www.w3.org/2000/svg" viewBox="0 0 1500 1500"><defs><style>.cls-1{fill:#00c8c2;}.cls-2{fill:none;}</style></defs><title>Cloud Management</title><path class="cls-1" d="M1220.06,538.59v-7.34c-22.63-340.49-331.39-356-355.62-356.68C697,156.31,574.85,263.48,529,311.79c-5.74,6-14.18,8-22.21,5.76-20.53-5.71-43.14-8.69-67.93-8.69-65.66,0-116.77,20-151.89,59.32-40.53,45.43-48.69,105-49.65,139.34a22,22,0,0,1-11,18.25C71.58,617.22,79.88,761.38,81.68,780.15c.24,97.61,31.09,174.51,91.7,228.56,83.36,74.34,201.18,85.8,265.87,85.8,8.92,0,16.82-.22,23.49-.52a21.86,21.86,0,0,0,20.69-24.48l-.12-1a21.8,21.8,0,0,0-22.55-19.36c-48.9,2-175.88-.78-257.88-74-50.8-45.39-76.56-111.37-76.56-196.11l-.21-3.07c-.77-5.77-17-142.36,144.12-223.16l13.84-7-1.63-15.45c-.09-.81-8-81.22,37.94-132.48,26.3-29.33,66.15-44.21,118.44-44.21S531,368.52,557.27,397.84c32.28,36,38,86.38,38.48,113.45a21.75,21.75,0,0,0,19.43,21.2l1,.11a21.81,21.81,0,0,0,24.3-21.9c-.55-33.79-7.92-95.66-49.72-142.51q-5-5.63-10.48-10.72c-9.56-8.92-10-23.75-.37-32.62,50.7-46.89,152-119.93,280.61-105.68l2.42.14c11.58,0,276.66,4.34,310.26,288.45,1.56,13.21-8.45,25-21.71,25h-65.73a21.91,21.91,0,0,0-21.87,21.94v.9a21.91,21.91,0,0,0,21.87,21.94H1192a20.71,20.71,0,0,1,5.81.78c28.74,8.31,178.5,60.5,178.5,245.48,0,175.78-153.37,219.63-290.94,223.57a22,22,0,0,0-21.57,21.94v.82a22,22,0,0,0,22.35,22c216.16-6,334.81-100.79,334.81-268.34C1421,624.72,1271.49,556.26,1220.06,538.59Z"/><rect class="cls-2" x="1" width="1500" height="1500"/><path class="cls-1" d="M774,915.54A113.27,113.27,0,1,0,660.75,802.27,113.4,113.4,0,0,0,774,915.54Z"/><path class="cls-1" d="M926,970.43l-.19-.06c-14.75-3.6-59.91-9.92-59.91-9.92a10,10,0,0,0-12.38,6.16l-68,186.52a12.27,12.27,0,0,1-23.06,0l-68-186.52a10,10,0,0,0-9.42-6.61c-1,0-47.41,6.51-62.87,10.36-42.24,10.5-68.89,52-68.89,95.34v155.2A42.11,42.11,0,0,0,595.44,1263H952.56a42.11,42.11,0,0,0,42.11-42.11V1065.17A99.66,99.66,0,0,0,926,970.43Z"/><path class="cls-1" d="M799.66,956.89A14.44,14.44,0,0,0,789,952.45H759a14.45,14.45,0,0,0-10.69,4.44,13.88,13.88,0,0,0-1.83,16.35l16,24.12L755,1060.54l14.75,39.23a4.5,4.5,0,0,0,8.46,0L793,1060.54l-7.49-63.18,16-24.12A13.89,13.89,0,0,0,799.66,956.89Z"/></svg>