<svg id="Слой_1" data-name="Слой 1" xmlns="http://www.w3.org/2000/svg" viewBox="0 0 1500 1500"><defs><style>.cls-1{fill:#00c8c2;}.cls-2{fill:none;}</style></defs><title>Cloud Migration</title><path class="cls-1" d="M1219.06,538.59v-7.34c-22.63-340.49-331.39-356-355.62-356.68C696,156.31,573.85,263.48,528,311.79c-5.74,6-14.18,8-22.21,5.76-20.53-5.71-43.14-8.69-67.93-8.69-65.66,0-116.77,20-151.89,59.32-40.53,45.43-48.69,105-49.65,139.34a22,22,0,0,1-11,18.25C70.58,617.22,78.88,761.38,80.68,780.15c.24,97.61,31.09,174.51,91.7,228.56,83.36,74.34,201.18,85.8,265.87,85.8,8.92,0,16.82-.22,23.49-.52a21.86,21.86,0,0,0,20.69-24.48l-.12-1a21.8,21.8,0,0,0-22.55-19.36c-48.9,2-175.88-.78-257.88-74-50.8-45.39-76.56-111.37-76.56-196.11l-.21-3.07c-.77-5.77-17-142.36,144.12-223.16l13.84-7-1.63-15.45c-.09-.81-8-81.22,37.94-132.48,26.3-29.33,66.15-44.21,118.44-44.21S530,368.52,556.27,397.84c32.28,36,38,86.38,38.48,113.45a21.75,21.75,0,0,0,19.43,21.2l1,.11a21.81,21.81,0,0,0,24.3-21.9c-.55-33.79-7.92-95.66-49.72-142.51q-5-5.63-10.48-10.72c-9.56-8.92-10-23.75-.37-32.62,50.7-46.89,152-119.93,280.61-105.68l2.42.14c11.58,0,276.66,4.34,310.26,288.45,1.56,13.21-8.45,25-21.71,25h-65.73a21.91,21.91,0,0,0-21.87,21.94v.9a21.91,21.91,0,0,0,21.87,21.94H1191a20.71,20.71,0,0,1,5.81.78c28.74,8.31,178.5,60.5,178.5,245.48,0,175.78-153.37,219.63-290.94,223.57a22,22,0,0,0-21.57,21.94v.82a22,22,0,0,0,22.35,22c216.16-6,334.81-100.79,334.81-268.34C1420,624.72,1270.49,556.26,1219.06,538.59Z"/><path class="cls-1" d="M953.16,1081.23,783.82,1251.05V745.42A22.35,22.35,0,0,0,761.5,723h0a22.35,22.35,0,0,0-22.32,22.39v501.35L592.12,1082.9a22.27,22.27,0,0,0-31.52-1.66h0a22.43,22.43,0,0,0-1.66,31.61l186,207.24a22.28,22.28,0,0,0,32.37.85l207.44-208.05a22.43,22.43,0,0,0,0-31.66h0A22.27,22.27,0,0,0,953.16,1081.23Z"/><rect class="cls-2" width="1500" height="1500"/></svg>