<svg id="Слой_1" data-name="Слой 1" xmlns="http://www.w3.org/2000/svg" viewBox="0 0 1500 1500"><defs><style>.cls-1{fill:#00c8c2;}.cls-2{fill:none;}</style></defs><title>Data Lake Implementation</title><path class="cls-1" d="M1219.06,538.59v-7.34c-22.63-340.49-331.39-356-355.62-356.68C696,156.31,573.85,263.48,528,311.79c-5.74,6-14.18,8-22.21,5.76-20.53-5.71-43.14-8.69-67.93-8.69-65.66,0-116.77,20-151.89,59.32-40.53,45.43-48.69,105-49.65,139.34a22,22,0,0,1-11,18.25C70.58,617.22,78.88,761.38,80.68,780.15c.24,97.61,31.09,174.51,91.7,228.56,83.36,74.34,201.18,85.8,265.87,85.8,8.92,0,16.82-.22,23.49-.52a21.86,21.86,0,0,0,20.69-24.48l-.12-1a21.8,21.8,0,0,0-22.55-19.36c-48.9,2-175.88-.78-257.88-74-50.8-45.39-76.56-111.37-76.56-196.11l-.21-3.07c-.77-5.77-17-142.36,144.12-223.16l13.84-7-1.63-15.45c-.09-.81-8-81.22,37.94-132.48,26.3-29.33,66.15-44.21,118.44-44.21S530,368.52,556.27,397.84c32.28,36,38,86.38,38.48,113.45a21.75,21.75,0,0,0,19.43,21.2l1,.11a21.81,21.81,0,0,0,24.3-21.9c-.55-33.79-7.92-95.66-49.72-142.51q-5-5.63-10.48-10.72c-9.56-8.92-10-23.75-.37-32.62,50.7-46.89,152-119.93,280.61-105.68l2.42.14c11.58,0,276.66,4.34,310.26,288.45,1.56,13.21-8.45,25-21.71,25h-65.73a21.91,21.91,0,0,0-21.87,21.94v.9a21.91,21.91,0,0,0,21.87,21.94H1191a20.71,20.71,0,0,1,5.81.78c28.74,8.31,178.5,60.5,178.5,245.48,0,175.78-153.37,219.63-290.94,223.57a22,22,0,0,0-21.57,21.94v.82a22,22,0,0,0,22.35,22c216.16-6,334.81-100.79,334.81-268.34C1420,624.72,1270.49,556.26,1219.06,538.59Z"/><rect class="cls-2" width="1500" height="1500"/><path class="cls-1" d="M977.07,901c47.71,57.27,47.72,98.5-1.9,148.22,2.39,1.29,5.18,2.15,7.12,3.94,28.82,26.53,37.63,65.22,23.35,101.76-13,33.26-47.09,56.66-84.1,56.95-42.3.33-84.6.08-128.36.08,0,16.32-.21,32.3.29,48.26.06,1.85,3.85,4,6.29,5.31,25.77,13.81,36.72,43.92,25.4,70.25A54.28,54.28,0,0,1,756,1365.33c-21.75-8.09-33.83-24.61-35.53-47.55-1.68-22.73,8.28-40.38,28.25-51.16,6.61-3.57,8.13-7.36,7.92-14-.41-13.06-.12-26.14-.12-40.63h-9.88q-56.16,0-112.31,0c-41.93,0-76.62-22.32-90-57.76-14.66-38.91-5.27-74.88,27.32-104.64a28.33,28.33,0,0,0,1.85-2.25c-22.58-18.64-35.68-42.66-35.81-72.27s12.55-54,35-72.58c-7.58-9.44-16.08-17.86-22-27.81C514.85,815,558.1,737.63,627.75,737.28c98-.49,196-.22,294,0,36.48.07,71.2,24.06,83.92,57.2,13.88,36.14,5.44,74.42-22.16,100.52ZM774.6,1029.34c47.13,0,94.27.29,141.4-.24,9.48-.11,19.65-1.71,28.25-5.47,23.13-10.13,35.47-35.39,30.62-59.27-5.22-25.72-26.11-43.58-52.92-44.38-18.84-.56-37.7-.2-56.56-.21q-115.86,0-231.71-.07c-17.63,0-33.13,4.81-44.94,18.21-15.29,17.34-18.91,37.36-9.61,58.49,9.64,21.88,27.6,32.69,51.34,32.84C678.51,1029.52,726.56,1029.32,774.6,1029.34Zm.34-255.61v0H679.16c-16.72,0-33.46-.32-50.17.11-30.91.8-54.7,24.7-54.81,54.53-.1,29.43,23.12,53.19,53.68,54.72,6.67.33,13.38.15,20.07.15q134.56,0,269.11.08c21.72,0,39.33-7.85,50.74-26.63,22.44-36.9-3.8-82.48-47.79-82.83C871.64,773.44,823.29,773.74,774.94,773.74Zm.42,292.14c-46.87,0-93.74-.06-140.61.08a82.05,82.05,0,0,0-18.1,1.74c-31.37,7.25-49.21,39-39.47,69.71,7.5,23.63,28,38,55.17,38q91.3.16,182.6,0c34.69,0,69.39.26,104.08,0,34.29-.31,58.92-26.28,56.55-59-2.1-29-25.67-50.25-56.89-50.42C870.93,1065.69,823.15,1065.88,775.36,1065.87ZM793,1314.18c-.07-9.54-8.71-18.09-18.21-18s-18.07,8.7-18,18.22,8.69,18.08,18.21,18S793,1323.69,793,1314.18Z"/><path class="cls-1" d="M711.12,990.31c-22.21,0-44.43.14-66.64-.06-11.88-.1-19.09-5-21.2-13.52-2.74-11.14,3.75-21.13,15.21-22.37,7.23-.78,14.58-.55,21.87-.56q55.68-.07,111.37,0c2.13,0,4.26,0,6.39,0,13.82.35,21.87,6.87,22.08,17.87.21,11.16-8.29,18.45-22.44,18.59C755.55,990.46,733.33,990.31,711.12,990.31Z"/><path class="cls-1" d="M865.75,971.87c0,9.66-8.31,17.93-18.15,18a17.9,17.9,0,1,1-.17-35.8C857.27,954.06,865.72,962.27,865.75,971.87Z"/><path class="cls-1" d="M893.34,971.84a17.62,17.62,0,0,1,18-17.77c9.89.06,18.15,8.24,18.1,17.91a18.3,18.3,0,0,1-18.21,17.84A17.87,17.87,0,0,1,893.34,971.84Z"/><path class="cls-1" d="M711.68,807.72c22.82,0,45.65-.31,68.47.11,14.93.27,24,12,18.35,24-2.25,4.77-8.08,8.24-12.94,11.23-2.54,1.57-6.51,1.1-9.83,1.11q-63.45.1-126.9,0a71.93,71.93,0,0,1-8.2-.25c-11.63-1.34-18.38-8.54-17.94-18.95.42-10,7.27-16.94,18.7-17.13,23.43-.4,46.86-.12,70.29-.12Z"/><path class="cls-1" d="M865.72,825.5c.2,9.42-8.06,18-17.68,18.33a17.93,17.93,0,1,1-.62-35.86A18.17,18.17,0,0,1,865.72,825.5Z"/><path class="cls-1" d="M910.95,808a18.26,18.26,0,0,1,18.47,17.53c.24,9.61-8,18.08-17.76,18.3a17.92,17.92,0,1,1-.71-35.82Z"/><path class="cls-1" d="M711.1,1099.81c22.82,0,45.65-.29,68.46.11,15.46.27,24.72,12.1,18.89,24.42-2.16,4.57-8,7.41-12.18,11a1.51,1.51,0,0,1-.89.15c-49.25,0-98.51.39-147.76-.21-10.44-.13-16.16-9.78-14.61-20.23,1.42-9.61,8.31-15.05,20.54-15.18C666.07,1099.63,688.58,1099.81,711.1,1099.81Z"/><path class="cls-1" d="M847.8,1135.89a17.89,17.89,0,1,1-.57-35.77,18.4,18.4,0,0,1,18.44,17.64C865.86,1127.42,857.65,1135.75,847.8,1135.89Z"/><path class="cls-1" d="M911.24,1135.93a17.94,17.94,0,1,1,.05-35.88c9.74,0,18.16,8.35,18.16,18S921.05,1135.93,911.24,1135.93Z"/></svg>