<svg id="Слой_1" data-name="Слой 1" xmlns="http://www.w3.org/2000/svg" viewBox="0 0 1500 1500"><defs><style>.cls-1{fill:#00c8c2;}.cls-2{fill:none;}</style></defs><title>High Performance Computing</title><path class="cls-1" d="M1219.06,538.59v-7.34c-22.63-340.49-331.39-356-355.62-356.68C696,156.31,573.85,263.48,528,311.79c-5.74,6-14.18,8-22.21,5.76-20.53-5.71-43.14-8.69-67.93-8.69-65.66,0-116.77,20-151.89,59.32-40.53,45.43-48.69,105-49.65,139.34a22,22,0,0,1-11,18.25C70.58,617.22,78.88,761.38,80.68,780.15c.24,97.61,31.09,174.51,91.7,228.56,83.36,74.34,201.18,85.8,265.87,85.8,8.92,0,16.82-.22,23.49-.52a21.86,21.86,0,0,0,20.69-24.48l-.12-1a21.8,21.8,0,0,0-22.55-19.36c-48.9,2-175.88-.78-257.88-74-50.8-45.39-76.56-111.37-76.56-196.11l-.21-3.07c-.77-5.77-17-142.36,144.12-223.16l13.84-7-1.63-15.45c-.09-.81-8-81.22,37.94-132.48,26.3-29.33,66.15-44.21,118.44-44.21S530,368.52,556.27,397.84c32.28,36,38,86.38,38.48,113.45a21.75,21.75,0,0,0,19.43,21.2l1,.11a21.81,21.81,0,0,0,24.3-21.9c-.55-33.79-7.92-95.66-49.72-142.51q-5-5.63-10.48-10.72c-9.56-8.92-10-23.75-.37-32.62,50.7-46.89,152-119.93,280.61-105.68l2.42.14c11.58,0,276.66,4.34,310.26,288.45,1.56,13.21-8.45,25-21.71,25h-65.73a21.91,21.91,0,0,0-21.87,21.94v.9a21.91,21.91,0,0,0,21.87,21.94H1191a20.71,20.71,0,0,1,5.81.78c28.74,8.31,178.5,60.5,178.5,245.48,0,175.78-153.37,219.63-290.94,223.57a22,22,0,0,0-21.57,21.94v.82a22,22,0,0,0,22.35,22c216.16-6,334.81-100.79,334.81-268.34C1420,624.72,1270.49,556.26,1219.06,538.59Z"/><rect class="cls-2" width="1500" height="1500"/><path class="cls-1" d="M460,1179.82c-19.77-125.67,58.14-284.12,220.59-332.53,156-46.48,300.46,35.34,358,141.59L944,1023.76C860.83,927.51,758.82,890,637.83,933.21,522.48,974.38,467.07,1063.66,460,1179.82Z"/><path class="cls-1" d="M1109,989.46l-96.89,65.74q-127.33,86.39-254.69,172.75a53.21,53.21,0,0,1-71.33-11.29c-17.37-22.31-14.74-54.16,6.43-72.63a50.37,50.37,0,0,1,15.2-9q86.4-32.21,173-63.92c29.08-10.72,58.13-21.53,87.24-32.18q70.09-25.64,140.24-51.12Z"/><path class="cls-1" d="M997.22,1179.27l-13-77.52,81.47-55.28c15.18,43.95,19.44,88,15.08,132.8Z"/></svg>