<svg id="Слой_1" data-name="Слой 1" xmlns="http://www.w3.org/2000/svg" viewBox="0 0 1500 1500"><defs><style>.cls-1{fill:#00c8c2;}.cls-2{fill:none;}</style></defs><title>Machine Learning</title><path class="cls-1" d="M664.92,255c17.49,7.11,24.42,20.09,23.4,38.84-.94,17.35-.08,34.79-.24,52.19-.17,18.94-13.12,32.55-30.82,32.7-17.52.15-30.8-13.74-31-32.51-.09-8,0-16.08,0-25.27-26.08,6.85-47,20.24-63.79,40.09A120.48,120.48,0,0,0,537,411.41c-5.18,21.53-14.17,28.62-36.57,29.26C447.21,442.19,403.37,491,410.67,541c12.89-2.11,25.74-4.46,38.67-6.23a155.56,155.56,0,0,1,21.19-1.27c18,0,31.91,13.44,32,30.53,0,17.37-13.12,30.82-31.36,31.2-24.22.5-47.12,5.7-68.83,16.6a154.62,154.62,0,0,0-83.18,165c11.2,65.63,65.13,117.42,131.62,126.22,7.32,1,14.75,1.18,22.13,1.69,17.33,1.19,30,14.91,29.59,32a30.72,30.72,0,0,1-30.74,29.77c-37.81.17-73.22-9.24-106.23-27.68-2.81-1.57-5.57-3.21-8.4-4.74-.51-.27-1.23-.13-2.59-.24-9.07,19.9-8.63,40.38-2.32,60.85,16.75,54.34,80.45,80.75,130.93,54.56,27.8-14.43,47.2-3.89,52.06,27.23,7.69,49.21,35.8,82.15,82.12,99.83a91.93,91.93,0,0,0,8.94,2.37c0-27.2,0-53.59,0-80,0-4.82-.22-9.76.69-14.44a30.91,30.91,0,0,1,33.26-24.73c15.16,1.42,27.65,14.11,27.77,29.73q.5,63.31,0,126.63c-.13,15.12-10.27,23.47-23.06,29.16H639.79a41.37,41.37,0,0,0-5.48-1.63q-110-17.23-151.38-120.56c-.81-2-1.88-3.94-2.85-6-65.05,12.95-120.74-3.1-161.36-55.92C278,1008,275,950.13,306.59,890.39c-20.14-24-35.13-51.13-43.4-81.67-3.5-12.92-5.51-26.25-8.2-39.39q0-20.3,0-40.61a7.94,7.94,0,0,0,1.34-2.47c8-64.56,38.6-115.61,91-153.94,2.29-1.68,3.9-6.53,3.39-9.48-14.92-86.22,37.09-163.57,122.51-181.11,6.75-1.39,9.41-4.44,11.85-10.26,23.64-56.42,65.26-92.87,123.81-110,9.46-2.77,19.28-4.33,28.93-6.45Z"/><path class="cls-1" d="M835.08,1245c-17.42-7.15-23.91-20.06-23.47-38.82.89-37.35.22-74.73.28-112.1,0-20.62,12.59-34.69,30.76-34.68,18.4,0,31.07,13.91,31.12,34.37.08,28,0,56,0,85.22,25-6.63,45.35-19.26,61.84-38s27.93-40.73,29.42-65.86c1.64-27.62,29.12-40.25,51.7-26.6,31.2,18.85,73.11,13.23,101.3-10.17,28.8-23.9,41.16-62.9,30.55-96.45-.86-2.73-2-5.39-2.83-7.74-17.08,7.39-33.26,16.6-50.65,21.32-20.92,5.68-42.78,8.68-64.43,10.68-18.72,1.73-32.89-12.42-33.15-29.93-.26-17.73,13.06-30.88,32-31.55,76.38-2.7,135.8-52.11,150.85-125.42,18.79-91.55-52.65-181.5-146-183.84-2.25-.06-4.51,0-6.76-.18-17.43-1-30.29-14.51-30.07-31.51.21-16.73,13.95-30.94,31.28-30,17.6.92,35.08,4,52.61,6.16,2.5.31,4.94,1,8.51,1.74,1.9-25.22-4.67-47.09-20-66.09-18-22.3-41.66-33.94-70.35-34.85-22.13-.7-31.08-8-36.66-29.31-12.2-46.58-42.15-76-89.14-90.89,0,9.36.09,17.57,0,25.77-.25,18.81-13.47,32.59-31,32.46s-30.63-13.8-30.79-32.72c-.14-17.39.72-34.83-.24-52.18-1-18.77,5.95-31.7,23.41-38.83h27.07a34.61,34.61,0,0,0,5.31,1.74c68.93,11,117.85,48.43,146.16,112.12,3.73,8.39,8.11,12,16.88,13.74,80.55,16.23,134.8,97.66,118.84,178.28-1.3,6.58.33,9.73,5.42,13.42C1197,604.91,1224.84,645.5,1238,696c3,11.4,4.69,23.13,7,34.71v38.67a64,64,0,0,0-1.75,7.28c-5,40.62-20.48,76.78-45.85,108.81-1.55,2-2.88,4.07-3.81,5.39,31.4,60,28.15,117.49-12.35,170.16-40.82,53.09-96.94,68.89-161.55,55.92l-2.83,7.19Q985,1205.2,903,1234.71c-13.16,4.71-27.21,6.93-40.85,10.29Z"/><path class="cls-1" d="M564,811.82V688.15c-9,0-17.88.05-26.76,0-20.59-.14-34.61-12.63-34.66-30.8,0-18.35,13.91-31,34.36-31.08,8.68,0,17.35,0,27.48,0,0-9.57,0-18.76,0-28,.13-21.21,12.5-33.74,33.49-33.91,9-.07,18,0,28.38,0,0-9.64,0-18.83,0-28,.13-19.8,12.69-33.63,30.66-33.82s31,13.67,31.2,33.27c.11,9,0,18,0,27.81H811.83c0-9-.05-18.17,0-27.37.13-19.7,13-33.72,30.79-33.71,18.09,0,30.93,13.75,31.1,33.38.08,9,0,18,0,28.47,9.23,0,18.1,0,27,0,22.49.08,34.79,12.21,34.9,34.44,0,8.67,0,17.34,0,27.43,9.62,0,18.82,0,28,0,19.81.12,33.67,12.71,33.82,30.65.16,18.34-13.82,31.14-34.21,31.26-8.69.05-17.38,0-26.86,0V811.84c8.94,0,18.15,0,27.35,0,19.61.07,33.68,12.93,33.72,30.77,0,18-13.76,30.95-33.36,31.12-9,.08-18,0-28.48,0,0,8.6,0,16.81,0,25-.09,25.28-11.42,36.75-36.37,36.83-8,0-16.05,0-25.49,0,0,9.63.05,18.83,0,28-.14,19.82-12.69,33.64-30.66,33.83-18.23.19-31.21-14-31.24-34.24,0-8.69,0-17.37,0-26.84H688.18c0,8.65,0,17.53,0,26.41-.07,20.59-12.52,34.58-30.81,34.67s-31-13.93-31.1-34.35c0-8.68,0-17.35,0-27.49-9.57,0-18.76,0-28,0-21.19-.13-33.74-12.53-33.91-33.49-.07-9,0-18,0-28.37-9.64,0-18.84,0-28,0-20.16-.13-34.1-13.2-33.81-31.64.28-17.75,14.34-30.2,34.25-30.27C545.46,811.8,554.15,811.82,564,811.82ZM626.69,873H872.95V626.8H626.69Z"/><rect class="cls-2" width="1500" height="1500"/></svg>