<svg id="Слой_1" data-name="Слой 1" xmlns="http://www.w3.org/2000/svg" viewBox="0 0 1500 1500"><defs><style>.cls-1{fill:none;}.cls-2{fill:#00c8c2;}</style></defs><title>Natural Language Processing</title><rect class="cls-1" width="1500" height="1500"/><path class="cls-2" d="M1292,442.87c0-1.81,0-3.61-1.81-5.42v-1.81c-1.81-1.81-1.81-3.61-3.61-5.42l-216.8-216.8c-1.81-1.81-3.61-1.81-5.42-3.61h-1.81c-1.81,0-3.61-1.81-5.42-1.81H226.07c-10.84,0-18.07,7.23-18.07,18.07V641.6h36.13V244.13h794.93V442.87c0,10.84,7.23,18.07,18.07,18.07h198.73V1292H1292V442.87ZM1075.2,424.8V269.43L1230.57,424.8Z"/><path class="cls-2" d="M406.73,804.2c10.84,0,18.07-7.23,18.07-18.07V623.53H551.27V587.4H406.73c-1.81,0-3.61,0-5.42,1.81h-1.81c-1.81,1.81-3.61,1.81-5.42,3.61L213.42,773.49c-3.61,3.61-5.42,7.23-5.42,12.65V1292h36.13V804.2ZM388.67,648.83V768.07H269.43Z"/><rect class="cls-2" x="1002.93" y="1057.13" width="36.13" height="234.87"/><rect class="cls-2" x="298.33" y="298.33" width="180.67" height="36.13"/><rect class="cls-2" x="298.33" y="370.6" width="361.33" height="36.13"/><path class="cls-2" d="M858.4,569.33a198.73,198.73,0,1,0,198.73,198.73A198.16,198.16,0,0,0,858.4,569.33Zm0,361.33A162.6,162.6,0,1,1,1021,768.07,161.92,161.92,0,0,1,858.4,930.67Z"/><path class="cls-2" d="M858.4,497.07a270.64,270.64,0,0,0-271,271c0,124.66,83.11,234.87,198.73,267.39v75.88H768.07c-10.84,0-18.07,7.23-18.07,18.07V1292h36.13v-72.27H930.67V1292H966.8V1129.4c0-10.84-7.23-18.07-18.07-18.07H930.67v-75.88c115.63-32.52,198.73-142.73,198.73-267.39A270.64,270.64,0,0,0,858.4,497.07ZM786.13,1183.6v-36.13H930.67v36.13ZM909,1002.93c-9,1.81-14.45,9-14.45,18.07v90.33H822.27V1021c0-9-5.42-16.26-14.45-18.07C701.22,979.45,623.53,880.08,623.53,768.07a234.87,234.87,0,0,1,469.73,0C1093.27,880.08,1015.58,979.45,909,1002.93Z"/><rect class="cls-2" x="370.6" y="930.67" width="216.8" height="36.13"/><rect class="cls-2" x="298.33" y="1021" width="361.33" height="36.13"/><rect class="cls-2" x="298.33" y="1111.33" width="397.47" height="36.13"/><rect class="cls-2" x="298.33" y="1201.67" width="397.47" height="36.13"/><rect class="cls-2" x="840.33" y="750" width="36.13" height="36.13"/><rect class="cls-2" x="840.33" y="659.67" width="36.13" height="36.13"/><rect class="cls-2" x="840.33" y="840.33" width="36.13" height="36.13"/><rect class="cls-2" x="930.67" y="750" width="36.13" height="36.13"/><rect class="cls-2" x="750" y="750" width="36.13" height="36.13"/><rect class="cls-2" x="786.13" y="695.8" width="36.13" height="36.13"/><rect class="cls-2" x="894.53" y="695.8" width="36.13" height="36.13"/><rect class="cls-2" x="894.53" y="804.2" width="36.13" height="36.13"/><rect class="cls-2" x="786.13" y="804.2" width="36.13" height="36.13"/></svg>