<svg id="Слой_1" data-name="Слой 1" xmlns="http://www.w3.org/2000/svg" viewBox="0 0 1500 1500"><defs><style>.cls-1{fill:#00c8c2;}.cls-2{fill:none;}</style></defs><title>Recommender Systems</title><path class="cls-1" d="M1160.58,331.85a18.92,18.92,0,0,0-18.92-18.92H358.34a18.92,18.92,0,0,0-18.92,18.92V888.12A18.92,18.92,0,0,0,358.34,907h783.32a18.92,18.92,0,0,0,18.92-18.92ZM377.26,869.19V783.93H533.94a50.46,50.46,0,1,0,0-37.84H377.26V704h290.2L715,751.54a50.56,50.56,0,1,0,27.27-26.25l-53.61-53.61a18.91,18.91,0,0,0-13.38-5.54h-298V628.91h520a50.46,50.46,0,1,0,0-37.84h-520V553.86H507.53a18.91,18.91,0,0,0,13.38-5.54l53.63-53.63a50.59,50.59,0,1,0-27.27-26.25L499.69,516H377.26V350.77h745.47v46.66H828.84A18.91,18.91,0,0,0,815.47,403L761.83,456.6a50.59,50.59,0,1,0,27.27,26.25l47.58-47.58h286.05v317.9H972.37a50.46,50.46,0,1,0,0,37.84h150.37v78.18H377.26ZM568.06,765a12.61,12.61,0,1,1,12.61,12.61A12.63,12.63,0,0,1,568.06,765Zm193-5.54a12.61,12.61,0,1,1-12.61,12.61A12.63,12.63,0,0,1,761.07,759.47ZM931.35,610A12.61,12.61,0,1,1,944,622.6,12.63,12.63,0,0,1,931.35,610ZM580.7,447.89a12.61,12.61,0,1,1,12.61,12.61A12.63,12.63,0,0,1,580.7,447.89Zm175,55.51a12.61,12.61,0,1,1-12.61-12.61A12.63,12.63,0,0,1,755.68,503.4ZM938.24,772.08a12.61,12.61,0,1,1-12.61-12.61A12.63,12.63,0,0,1,938.24,772.08Z"/><path class="cls-1" d="M1168.71,1028.14H988.41V982.73h171.67a76.28,76.28,0,0,0,76.19-76.19V313.44a76.28,76.28,0,0,0-76.19-76.19H339.92a76.28,76.28,0,0,0-76.19,76.19v593.1a76.28,76.28,0,0,0,76.19,76.19H511.6v45.41H331.29a73.31,73.31,0,0,0-73.23,73.23v88.16a73.31,73.31,0,0,0,73.23,73.23h837.43a73.31,73.31,0,0,0,73.23-73.23v-88.16a73.32,73.32,0,0,0-73.23-73.23ZM301.57,906.53V313.44a38.39,38.39,0,0,1,38.35-38.35h820.15a38.39,38.39,0,0,1,38.35,38.35v593.1a38.39,38.39,0,0,1-38.35,38.35H339.92a38.39,38.39,0,0,1-38.35-38.35Zm247.87,76.19H950.56v45.41H549.45Zm654.65,206.8a35.43,35.43,0,0,1-35.39,35.39H331.29a35.43,35.43,0,0,1-35.39-35.39v-88.16A35.43,35.43,0,0,1,331.29,1066h837.43a35.43,35.43,0,0,1,35.39,35.39v88.16Z"/><path class="cls-1" d="M695.13,1126.53H369.69a18.92,18.92,0,1,0,0,37.84H695.13a18.92,18.92,0,1,0,0-37.84Z"/><path class="cls-1" d="M1134.09,1126.53h-56.76a18.92,18.92,0,0,0,0,37.84h56.76a18.92,18.92,0,1,0,0-37.84Z"/><rect class="cls-2" width="1500" height="1500"/></svg>