<?xml version="1.0" encoding="utf-8"?>
<!-- Generator: Adobe Illustrator 22.0.1, SVG Export Plug-In . SVG Version: 6.00 Build 0)  -->
<svg version="1.1" id="Layer_1" xmlns="http://www.w3.org/2000/svg" xmlns:xlink="http://www.w3.org/1999/xlink" x="0px" y="0px"
	 viewBox="0 0 600 259.5" style="enable-background:new 0 0 600 259.5;" xml:space="preserve">
<style type="text/css">
	.st0{fill:#EC008C;}
</style>
<g>
	<g>
		<g>
			<g>
				<path class="st0" d="M338.6,156.1c-11.5,0-18.3-4-18.3-20.8V60l31.4-2.6V35.4h-31.4V2.7h-34v32.7h-18.8v21.9l18.8,2.6v82.9
					c0,32.6,17.7,43.5,42.7,43.5c8.1,0,18.5-2.2,27.1-5.3v-26.4C351.3,155.5,347.1,156.1,338.6,156.1z"/>
				<path class="st0" d="M524.1,32.6c-39.4,0-72.9,28.8-72.9,77.1c0,47.9,33.6,76.8,72.9,76.8c39.3,0,72.9-28,72.9-76.8
					C597,60.9,563.5,32.6,524.1,32.6z M524.1,157.4c-24.5,0-40.5-21.2-40.5-47.8c0-26.9,16-48,40.5-48c24.5,0,40.5,21,40.5,48
					C564.6,136.7,548.6,157.4,524.1,157.4z"/>
				<path class="st0" d="M63.8,32.6c-20.2,0-37.5,7.5-49.7,13.8l5.6,24.2C30.2,66,43,60.9,59.7,60.9c27.3,0,41.8,13.1,41.8,38.5
					C92,95.9,78,92.1,60,92.1c-31.9,0-57,16.6-57,48.6c0,29.7,24.2,45.7,49.6,45.7c24.8,0,40.3-7.1,48.8-16.8l4.5,13.9h28.3V95.3
					C134.3,55.7,107.6,32.6,63.8,32.6z M101.5,126.4c0,20.9-12.3,34.8-39.3,34.8c-16,0-28.6-8.1-28.6-22.2c0-15.2,12.7-23.9,34-23.9
					c12.7,0,24.6,2.7,34,6.7V126.4z"/>
				<path class="st0" d="M245.8,68c-6.5-2.6-21.8-7.4-36.1-7.4c-12.7,0-19.1,7-19.1,13.9c0,6.6,3.4,10.7,14.8,15.4l27.7,11.1
					c16,6.4,28.6,19,28.6,38.6c0,31.6-27.4,46.8-58.2,46.8c-15.7,0-39.7-6.1-53.1-15.4l5.9-24.8c18.8,7.9,37.6,12.4,48.2,12.4
					c13.3,0,22.3-6,22.3-15.9c0-8.5-6.2-13.1-18.6-17.8l-23.8-9.1c-17.2-6.5-31.1-19.6-31.1-40.1c0-29.6,27.8-43.2,54.6-43.2
					c17.5,0,36.2,5.9,44.2,9L245.8,68z"/>
				<path class="st0" d="M408.3,59.4v-24h-32.5v148.1h33.9v-67.4c0-38.9,19.8-52.3,43.3-52.3V32.6C437.1,32.6,417.3,40.2,408.3,59.4
					z"/>
			</g>
			<path class="st0" d="M594.9,193.1c-2.1,3.7-34.9,63.7-162.2,63.7c-88.4,0-197.8-28.7-303-28.7c-49.4,0-89.5,2.3-122.1,11.8
				c-2.2,0.6-4.6,0-4.6-1.8c0-1.8,2.2-3,4.1-4.1c25.2-13,76.1-30.4,141.8-30.4c119.8,0,213.9,22.8,302.4,22.8
				c96.3,0,137.1-35.5,140.3-38.2c4.1-3.4,5.3-1.1,5.3,0C597,189.6,595.9,191.6,594.9,193.1z"/>
		</g>
	</g>
</g>
</svg>
